<?xml version="1.0" standalone="no"?>
<!DOCTYPE svg PUBLIC "-//W3C//DTD SVG 20010904//EN"
 "http://www.w3.org/TR/2001/REC-SVG-20010904/DTD/svg10.dtd">
<svg version="1.0" xmlns="http://www.w3.org/2000/svg"
 width="225.000000pt" height="225.000000pt" viewBox="0 0 225.000000 225.000000"
 preserveAspectRatio="xMidYMid meet">

<g transform="translate(0.000000,225.000000) scale(0.100000,-0.100000)"
fill="#000000" stroke="none">
<path d="M564 2172 c-40 -32 -44 -54 -44 -256 0 -183 1 -197 20 -216 11 -11
29 -20 40 -20 11 0 29 9 40 20 18 18 20 33 20 195 l0 175 485 0 485 0 0 -92 0
-92 -34 33 c-55 53 -116 41 -116 -23 0 -27 14 -46 94 -124 66 -65 100 -92 118
-92 31 0 218 187 218 218 0 28 -47 64 -74 56 -12 -3 -36 -20 -53 -37 l-33 -31
0 123 c0 122 0 123 -29 152 l-29 29 -544 0 c-499 0 -545 -2 -564 -18z"/>
<path d="M515 1567 c-26 -6 -57 -28 -91 -62 -62 -62 -81 -122 -63 -205 16 -74
83 -145 157 -166 223 -65 385 210 221 375 -27 27 -58 46 -92 56 -57 17 -75 17
-132 2z"/>
<path d="M1599 1564 c-29 -8 -63 -30 -88 -55 -164 -165 -2 -440 221 -375 45
13 65 26 101 66 56 62 73 123 56 202 -15 70 -92 149 -161 166 -58 15 -71 14
-129 -4z"/>
<path d="M395 1036 c-99 -45 -136 -114 -138 -255 l-2 -96 325 0 325 0 -2 95
c-3 142 -40 211 -138 256 -45 21 -64 24 -185 24 -121 0 -140 -3 -185 -24z"/>
<path d="M1485 1036 c-97 -46 -135 -117 -138 -259 l-2 -92 325 0 325 0 -2 96
c-2 141 -39 210 -138 255 -45 21 -64 24 -185 24 -121 0 -140 -3 -185 -24z"/>
<path d="M458 472 c-54 -54 -98 -106 -98 -116 0 -9 11 -28 25 -42 31 -30 55
-26 103 19 l32 31 0 -113 c0 -116 7 -143 44 -173 19 -16 64 -18 561 -18 497 0
542 2 561 18 40 32 44 54 44 256 0 183 -1 197 -20 216 -11 11 -29 20 -40 20
-11 0 -29 -9 -40 -20 -18 -18 -20 -33 -20 -195 l0 -175 -485 0 -485 0 0 91 0
91 40 -36 c22 -20 47 -36 55 -36 21 0 65 45 65 66 0 9 -44 61 -97 115 -71 73
-103 99 -122 99 -18 0 -51 -26 -123 -98z"/>
</g>
</svg>
