<?xml version="1.0" standalone="no"?>
<!DOCTYPE svg PUBLIC "-//W3C//DTD SVG 20010904//EN"
 "http://www.w3.org/TR/2001/REC-SVG-20010904/DTD/svg10.dtd">
<svg version="1.0" xmlns="http://www.w3.org/2000/svg"
 width="225.000000pt" height="225.000000pt" viewBox="0 0 225.000000 225.000000"
 preserveAspectRatio="xMidYMid meet">

<g transform="translate(0.000000,225.000000) scale(0.100000,-0.100000)"
fill="#000000" stroke="none">
<path d="M168 1905 c-15 -9 -32 -24 -38 -35 -6 -12 -10 -230 -10 -625 l0 -607
29 -29 29 -29 349 0 c197 0 363 -4 382 -10 73 -21 136 -83 168 -165 16 -42 18
1271 2 1330 -18 63 -62 118 -121 150 l-53 30 -355 2 c-300 2 -359 0 -382 -12z
m700 -221 c26 -18 28 -31 5 -56 -15 -16 -37 -18 -265 -18 -153 0 -257 4 -269
10 -24 13 -25 56 -1 69 10 6 114 11 262 11 206 0 249 -2 268 -16z m12 -213
c13 -25 13 -27 -6 -45 -13 -14 -52 -16 -273 -16 -186 0 -260 3 -269 12 -13 13
-16 50 -5 61 3 4 127 7 274 7 255 0 269 -1 279 -19z m0 -201 c8 -14 8 -26 0
-40 -10 -19 -21 -20 -273 -20 -270 0 -287 2 -287 40 0 38 17 40 287 40 252 0
263 -1 273 -20z m-8 -197 c24 -21 23 -39 -4 -57 -19 -13 -61 -16 -260 -16
-130 0 -248 4 -262 10 -18 6 -26 17 -26 33 0 45 9 47 279 47 223 0 257 -2 273
-17z m11 -215 c9 -13 7 -22 -7 -37 -18 -20 -29 -21 -276 -21 -186 0 -259 3
-268 12 -13 13 -16 50 -5 61 4 4 128 6 276 5 241 -3 271 -5 280 -20z"/>
<path d="M1342 1901 c-62 -21 -114 -68 -142 -126 -19 -40 -20 -63 -20 -711 1
-568 3 -664 14 -638 22 50 78 106 131 130 49 24 54 24 403 24 l354 0 34 34 34
34 -2 606 -3 606 -28 27 -27 28 -348 2 c-316 3 -352 1 -400 -16z m586 -217
c26 -18 28 -31 5 -56 -15 -16 -37 -18 -265 -18 -153 0 -257 4 -269 10 -24 13
-25 56 -1 69 10 6 114 11 262 11 206 0 249 -2 268 -16z m12 -213 c13 -25 13
-27 -6 -45 -13 -14 -52 -16 -273 -16 -281 0 -290 2 -277 55 l6 25 270 0 c256
0 270 -1 280 -19z m0 -201 c8 -14 8 -26 0 -40 -10 -19 -21 -20 -273 -20 -270
0 -287 2 -287 40 0 38 17 40 287 40 252 0 263 -1 273 -20z m-8 -197 c24 -21
23 -39 -4 -57 -19 -13 -61 -16 -260 -16 -130 0 -248 4 -262 10 -31 11 -36 53
-8 69 10 6 116 11 266 11 218 0 252 -2 268 -17z m6 -205 c16 -16 15 -33 -4
-52 -13 -14 -52 -16 -273 -16 -186 0 -260 3 -269 12 -13 13 -16 50 -5 61 3 4
126 7 273 7 193 0 269 -3 278 -12z"/>
</g>
</svg>
